<svg width="171" height="39" viewBox="0 0 171 39" fill="none" xmlns="http://www.w3.org/2000/svg">
<path d="M8.55161 9C3.73144 20.4128 0.551612 38 1.05161 38C1.55161 38 9.53401 20.6962 18.0516 12.5C19.2011 11.5208 15.5516 30 16.0516 30C16.5516 30 24.5516 21 25.0516 21C25.5516 21 26.3012 31 28.5516 31C30.3196 31 35.4095 25.3559 37.0824 23.2486M37.0824 23.2486C37.5389 22.6734 37.741 22.3617 37.5516 22.5C37.4365 22.584 37.2751 22.8498 37.0824 23.2486ZM37.0824 23.2486C35.7958 25.9107 33.1167 34.5 33.5516 34.5C34.0516 34.5 40.0516 25 40.5516 25C41.0287 25 46.3702 26.3656 46.8141 25.1878M46.8141 25.1878C46.8355 25.1312 46.8455 25.0688 46.8431 25M46.8141 25.1878C46.8227 25.1249 46.8323 25.0622 46.8431 25M46.8141 25.1878C46.7157 25.9147 46.7712 26.6885 47.0516 27.5C47.6155 29.1321 47.9695 30.1387 48.1894 30.7937M46.8431 25C46.7915 23.5 48.3549 19.6699 50.5516 19C52.5931 18.5831 47.522 21.0817 46.8431 25ZM48.1894 30.7937C48.6846 32.2684 48.5 31.9613 48.5 33C48.5 34.5 46.0516 38 45.5516 38C45.0516 38 43.5516 37 44.5 34.5C44.8941 33.4613 46.3414 32.1678 48.1894 30.7937ZM48.1894 30.7937C50.7892 28.8606 48.1821 30.7679 50.5516 29C52.9211 27.2321 81.3408 18.0699 87.8408 14.0699C94.3408 10.0699 97.3408 0.0698348 87.8408 1.06987C78.3408 2.06991 70.8407 21.014 75.3408 23.5699C79.8409 26.1257 89.3408 17.5698 89.3408 26.5699C89.3408 27.1005 89.3113 27.6121 89.2554 28.1046M89.2554 28.1046C88.3645 35.9653 80.7816 38.9815 79.8408 37.5699C78.8457 36.0768 83.1756 30.5934 89.2554 28.1046ZM89.2554 28.1046C89.2839 28.0929 89.3123 28.0814 89.3408 28.0699C92.875 26.771 96.9856 23.5145 98.4449 22.1417M98.4449 22.1417C98.9694 21.6482 99.1514 21.3981 98.8408 21.5699C98.7029 21.6461 98.5696 21.8476 98.4449 22.1417ZM98.4449 22.1417C97.5073 24.3522 97.0586 31.7931 98.8408 30.5699C102.764 27.9956 105.341 27.5699 107.841 22.5699C108.794 20.664 109.989 18.2211 111.066 15.9383M111.066 15.9383C112.815 12.2323 114.253 8.94834 113.841 9.06987C113.628 9.13259 112.481 12.0615 111.066 15.9383ZM111.066 15.9383C108.05 24.2017 103.82 36.7715 104.841 35.0699C105.182 34.5009 105.496 33.4707 105.951 32.2948M105.951 32.2948C106.11 30.7539 111.789 21.6352 113.341 21.5699C115 21.5 114.5 24.5 110.5 26.5C107.961 27.7693 106.742 30.252 105.951 32.2948ZM105.951 32.2948C105.94 32.4011 105.955 32.4713 106 32.5C106.502 32.822 116.961 27.113 121.735 24.0075M121.735 24.0075C123.561 22.8195 124.555 22.0125 123.841 22.0699C123.037 22.1345 122.297 22.9354 121.735 24.0075ZM121.735 24.0075C120.493 26.3766 120.12 30.0699 121.841 30.0699C124.341 30.0698 125.341 26.5698 124.841 25.0698C124.341 23.5699 130.182 23.9731 130.841 23.0699C131.5 22.1667 133.347 19.7276 132.841 20.5699C132.335 21.4121 128.31 33.9416 129.341 33.0698C131.841 29.5698 135.341 21.5699 136.341 23.5698C137.341 25.5698 139.341 26.0698 142.341 23.5699C142.341 23.5699 144.127 20.653 145.915 17.4816M145.915 17.4816C148.005 13.7736 150.098 9.71768 149.341 9.56987C148.816 9.46732 147.424 13.0082 145.915 17.4816ZM145.915 17.4816C143.387 24.9694 140.528 35.0699 140.841 35.0699C140.972 35.0699 141.548 34.0141 142.379 32.5743M142.379 32.5743C141.837 32.8611 141.513 33.0207 141.5 33C141.413 32.8604 147.84 21.4412 148.92 21.2206C150 21 150.5 23 147.5 25.5C145.659 27.0339 143.698 30.2882 142.379 32.5743ZM142.379 32.5743C145.498 30.9254 155.841 25.0699 155.841 25.0699C155.841 25.0699 157.5 22.4348 159.5 21.4674M162.521 22.0616C164.093 20.2906 165.341 18.7674 165.341 18.5699C165.341 18.0698 162.5 21.2206 162.5 21.2206C162.5 21.2206 162.075 20.9141 161.224 20.9692M162.521 22.0616C160.114 24.7749 156.946 28.0698 156.341 28.0699C155.341 28.0699 156.341 23.5699 159.341 21.5699C159.395 21.534 159.448 21.4998 159.5 21.4674M162.521 22.0616C162.283 21.5711 161.882 21.0662 161.224 20.9692M162.521 22.0616C162.77 22.5736 162.841 23.0699 162.841 23.0699C162.841 23.0699 161.841 27.5699 163.341 27.5699C164.841 27.5698 170.341 23.0699 170.341 23.0699M159.5 21.4674C160.213 21.0254 160.778 20.9034 161.224 20.9692M159.5 21.4674C160.196 21.1309 160.77 20.9986 161.224 20.9692" stroke="black" stroke-linecap="round"/>
</svg>
