<svg width="58" height="284" viewBox="0 0 58 284" fill="none" xmlns="http://www.w3.org/2000/svg">
<path d="M10.4561 252.043C10.6288 260.539 13.4561 277.043 13.4561 273.543C13.4561 270.043 12.4561 270.043 12.4561 270.043C20.7151 274.185 35.4561 280.044 35.4561 279.543C35.4561 279.043 32.4561 266.543 32.9561 266.543C33.4561 266.543 35.9561 282.543 36.4561 282.543C36.9561 282.543 34.4561 279.043 37.4561 280.043C40.4561 281.043 50.9029 284.767 51.9561 279.543C53.0093 274.32 50.4561 262.044 46.9561 259.543C43.4561 257.043 29.2384 252.342 29.4561 251.043C29.6738 249.745 46.9561 260.044 46.9561 255.543C46.9561 251.043 33.9561 245.543 37.4561 246.543C40.9561 247.543 44.9561 246.543 44.9561 243.043C44.9561 239.543 30.9561 237.043 33.9561 238.043C36.9561 239.043 38.4561 225.654 34.9561 222.543C31.4561 219.432 29.4561 218.543 29.9561 222.043C30.4561 225.543 35.4561 228.543 37.4561 229.043C39.4561 229.543 43.8186 228.696 44.4561 225.543C45.0937 222.391 33.8393 212.235 32.9561 211.043C32.0729 209.852 9.38273 196.704 8.95613 198.543C8.52953 200.383 19.7669 207.004 27.9561 209.543C36.5535 212.209 49.4563 214.043 50.9561 211.043C52.456 208.044 28.9563 195.543 31.9563 197.043C34.9563 198.543 45.0173 202.102 44.9561 197.043C44.8949 191.985 27.8292 180.895 27.9561 182.043C28.0831 183.192 47.2146 186.918 45.9561 186.543C44.6977 186.169 22.3662 174.622 33.4563 175.543C44.5464 176.464 39.9419 168.361 35.9563 165.788M35.9563 165.788C34.3285 164.737 33.9568 165.043 31.4568 162.043C28.9568 159.043 31.9565 155.288 31.9565 155.288M35.9563 165.788C41.3975 167.402 41.3896 166.922 40.9563 165.543C39.9298 162.277 29.9562 156.532 31.9565 155.288M35.9563 165.788C30.5151 164.174 31.4568 157.043 30.9563 155.043C30.4558 153.043 28.1934 152.093 25.4563 152.043C22.7192 151.994 31.4563 154.043 31.9565 155.288M31.9565 155.288C33.9568 154.043 41.4301 157.146 40.9561 155.043C40.4822 152.941 36.456 148.044 34.4561 146.043C32.4563 144.043 29.6293 116.205 19.9561 100.043C14.0674 90.2047 0.956787 82.5433 0.956787 98.5433C0.956787 114.543 35.2284 126.347 34.9563 117.543C34.6842 108.739 27.7097 99.0982 35.9563 98.0433C44.2029 96.9884 60.9568 110.543 55.4568 113.043C49.9568 115.543 44.7081 99.5928 37.9568 90.5433C33.1428 84.0907 27.0323 79.8461 32.9565 83.5433C47.1889 92.4257 50.7067 80.4122 36.4563 73.5433C36.4563 73.5433 14.5902 63.3123 13.9563 62.0433C13.6613 61.4528 22.4786 67.0237 31.4563 70.0433C41.7704 73.5124 52.4558 75.0433 52.4563 74.5433C52.4568 74.0433 32.1825 61.847 31.4563 62.0433C29.5658 62.5545 34.0895 71.3926 39.9568 72.0435C41.4992 72.2146 50.0956 74.9186 50.4568 74.0433C49.9568 72.5435 34.9563 63.8628 44.4568 69.5435C53.9573 75.2241 30.4568 44.5433 32.1825 46.5894C33.9083 48.6356 43.9558 55.0433 43.9563 49.0433C43.9568 43.0433 36.9563 46.5433 36.4563 45.5433C35.9563 44.5433 35.4558 33.5433 30.9563 33.0433C26.4568 32.5433 47.9558 39.0433 47.9563 38.0433C47.9568 37.0433 32.4555 30.5433 34.4561 28.5433C36.4568 26.5433 38.4558 25.0433 36.4563 21.5433C34.4568 18.0433 31.9563 15.1794 31.9568 13.5435C31.9573 11.9075 23.9568 6.04333 26.9563 7.54333C29.9558 9.04333 32.9565 18.0433 34.9563 20.5433C36.9561 23.0433 40.9563 23.5433 41.4568 19.5433C41.9573 15.5433 30.6339 12.5433 30.634 11.0433C30.6342 9.54333 40.9558 12.0433 40.9563 10.5433C40.9568 9.04333 34.4561 1.04333 34.4561 1.04333" stroke="black" stroke-linecap="round"/>
</svg>
