<svg width="28" height="28" viewBox="0 0 28 28" fill="none" xmlns="http://www.w3.org/2000/svg">
<g clip-path="url(#clip0)">
<path d="M14 20.9102C12.0453 20.9102 10.4551 22.5004 10.4551 24.4551C10.4551 26.4098 12.0453 28.0001 14 28.0001C15.9547 28.0001 17.545 26.4098 17.545 24.4551C17.545 22.5004 15.9547 20.9102 14 20.9102ZM14 26.8845C12.6605 26.8845 11.5706 25.7948 11.5706 24.4552C11.5706 23.1156 12.6604 22.0257 14 22.0257C15.3397 22.0257 16.4295 23.1155 16.4295 24.4551C16.4295 25.7947 15.3396 26.8845 14 26.8845Z" fill="#414141"/>
<path d="M15.6864 0H12.3137C11.2889 0 10.4551 0.833766 10.4551 1.85861V16.8341C10.4551 17.859 11.2888 18.6928 12.3137 18.6928H15.6864C16.7112 18.6928 17.545 17.859 17.545 16.8341V1.85861C17.545 0.833766 16.7113 0 15.6864 0ZM16.4295 16.8341C16.4295 17.2438 16.0962 17.5772 15.6865 17.5772H12.3138C11.9041 17.5772 11.5708 17.2438 11.5708 16.8341V1.85861C11.5708 1.44895 11.9041 1.11557 12.3138 1.11557H15.6865C16.0961 1.11557 16.4295 1.44889 16.4295 1.85861V16.8341Z" fill="#414141"/>
<path d="M12.7726 8.75696C12.4646 8.75696 12.2148 9.00672 12.2148 9.31472V16.3426C12.2148 16.6506 12.4646 16.9004 12.7726 16.9004C13.0806 16.9004 13.3304 16.6506 13.3304 16.3426V9.31472C13.3304 9.00672 13.0806 8.75696 12.7726 8.75696Z" fill="#414141"/>
<path d="M12.7726 6.63745C12.4646 6.63745 12.2148 6.88721 12.2148 7.19521V7.6414C12.2148 7.9494 12.4646 8.19916 12.7726 8.19916C13.0806 8.19916 13.3304 7.9494 13.3304 7.6414V7.19521C13.3304 6.88721 13.0806 6.63745 12.7726 6.63745Z" fill="#414141"/>
</g>
<defs>
<clipPath id="clip0">
<rect width="28" height="28" fill="white"/>
</clipPath>
</defs>
</svg>
