<svg width="31" height="29" viewBox="0 0 31 29" fill="none" xmlns="http://www.w3.org/2000/svg">
<path d="M30.4344 14.8753L15.7377 0.17861C15.4995 -0.0595367 15.1135 -0.0595367 14.8752 0.17861L0.178604 14.8753C0.00425399 15.0496 -0.0479434 15.312 0.0464065 15.5398C0.140816 15.7676 0.363119 15.9162 0.609816 15.9162H3.03326V28.3902C3.03326 28.727 3.30632 29 3.64306 29H12.1964C12.5331 29 12.8062 28.727 12.8062 28.3902V19.4395H17.8067V28.3902C17.8067 28.727 18.0797 29 18.4165 29H27.0474C27.3842 29 27.6572 28.727 27.6573 28.3902V15.9162H30.003C30.2497 15.9162 30.472 15.7676 30.5665 15.5398C30.6609 15.312 30.6087 15.0497 30.4344 14.8753ZM27.0475 14.6966C26.7107 14.6966 26.4377 14.9696 26.4377 15.3064V27.7804H19.0263V18.8297C19.0263 18.4929 18.7533 18.2199 18.4165 18.2199H12.1964C11.8596 18.2199 11.5866 18.4929 11.5866 18.8297V27.7804H4.25287V15.3064C4.25287 14.9696 3.97981 14.6966 3.64306 14.6966H2.08211L15.3065 1.47218L28.5308 14.6966H27.0475Z" fill="#414141"/>
<path d="M9.97492 8.79378C9.73665 8.55564 9.35064 8.55564 9.11243 8.79378L4.63027 13.2759C4.39212 13.5141 4.39212 13.9003 4.63027 14.1384C4.74937 14.2575 4.90537 14.317 5.06148 14.317C5.2176 14.317 5.37359 14.2575 5.49275 14.1384L9.97492 9.65627C10.2131 9.41806 10.2131 9.03193 9.97492 8.79378Z" fill="#414141"/>
<path d="M11.8644 6.90328C11.6262 6.66513 11.2402 6.66513 11.002 6.90328L10.6056 7.29969C10.3675 7.5379 10.3675 7.92403 10.6056 8.16218C10.7247 8.28128 10.8807 8.34077 11.0368 8.34077C11.1929 8.34077 11.3489 8.28128 11.4681 8.16218L11.8644 7.76576C12.1026 7.52756 12.1026 7.14143 11.8644 6.90328Z" fill="#414141"/>
</svg>
