<svg width="29" height="29" viewBox="0 0 29 29" fill="none" xmlns="http://www.w3.org/2000/svg">
<path d="M14.5318 5.67529C9.68307 5.67529 5.73828 9.62003 5.73828 14.4689C5.73828 16.0148 6.14513 17.5353 6.91499 18.866C7.04436 19.0896 7.33051 19.1659 7.55412 19.0367C7.77768 18.9073 7.85415 18.6212 7.72484 18.3976C7.03728 17.209 6.67381 15.8505 6.67381 14.4689C6.67381 10.1359 10.1989 6.61083 14.5318 6.61083C18.8648 6.61083 22.3899 10.1359 22.3899 14.4689C22.3899 18.8018 18.8648 22.3269 14.5318 22.3269C12.3517 22.3269 10.3251 21.4548 8.82542 19.8712C8.6478 19.6837 8.35174 19.6756 8.16414 19.8533C7.97661 20.0309 7.96851 20.327 8.14619 20.5146C9.82439 22.2865 12.0922 23.2624 14.5318 23.2624C19.3806 23.2624 23.3254 19.3176 23.3254 14.4688C23.3254 9.61997 19.3806 5.67529 14.5318 5.67529Z" fill="#414141"/>
<path d="M14.5307 8.7937C11.4014 8.7937 8.85547 11.3396 8.85547 14.469C8.85547 17.5984 11.4014 20.1443 14.5307 20.1443C17.6601 20.1443 20.206 17.5984 20.206 14.469C20.206 11.3396 17.6601 8.7937 14.5307 8.7937ZM14.5307 19.2087C11.9172 19.2087 9.79095 17.0825 9.79095 14.4689C9.79095 11.8554 11.9172 9.72912 14.5307 9.72912C17.1443 9.72912 19.2705 11.8554 19.2705 14.4689C19.2705 17.0825 17.1443 19.2087 14.5307 19.2087Z" fill="#414141"/>
<path d="M22.5141 4.42798C21.3793 4.42798 20.4561 5.35122 20.4561 6.48607C20.4561 7.62092 21.3793 8.54411 22.5141 8.54411C23.6489 8.54411 24.5722 7.62087 24.5722 6.48607C24.5722 5.35128 23.6489 4.42798 22.5141 4.42798ZM22.5141 7.60863C21.8951 7.60863 21.3915 7.10504 21.3915 6.48607C21.3915 5.8671 21.8951 5.36351 22.5141 5.36351C23.1331 5.36351 23.6367 5.8671 23.6367 6.48607C23.6367 7.10504 23.1331 7.60863 22.5141 7.60863Z" fill="#414141"/>
<path d="M22.5452 0H6.45482C2.88997 0 0 2.88997 0 6.45482V22.5451C0 26.11 2.88997 29 6.45482 29H22.5451C26.11 29 29 26.11 29 22.5452V6.45482C29 2.88997 26.11 0 22.5452 0ZM28.0645 22.5452C28.0645 25.5934 25.5934 28.0645 22.5452 28.0645H6.45482C3.40659 28.0645 0.935477 25.5934 0.935477 22.5452V6.45482C0.935477 3.40659 3.40659 0.935477 6.45482 0.935477H22.5451C25.5933 0.935477 28.0645 3.40659 28.0645 6.45482V22.5452H28.0645Z" fill="#414141"/>
<path d="M22.3578 2.18286H6.64176C4.17909 2.18286 2.18262 4.17933 2.18262 6.64201V22.3581C2.18262 24.8208 4.17909 26.8173 6.64176 26.8173H22.3579C24.8206 26.8173 26.817 24.8208 26.817 22.3581V6.64201C26.817 4.17927 24.8206 2.18286 22.3578 2.18286ZM25.8815 22.3581C25.8815 24.3041 24.3039 25.8818 22.3578 25.8818H6.64176C4.69571 25.8818 3.11809 24.3041 3.11809 22.3581V6.64201C3.11809 4.69595 4.69571 3.11834 6.64176 3.11834H22.3579C24.304 3.11834 25.8816 4.69595 25.8816 6.64201V22.3581H25.8815Z" fill="#414141"/>
</svg>
