<svg width="171" height="38" viewBox="0 0 171 38" fill="none" xmlns="http://www.w3.org/2000/svg">
<path d="M7.70271 3.84814C7.3472 4.52954 2.69596 18.9869 1.62943 22.8086C0.592531 26.4822 1.52588e-05 29.9781 1.52588e-05 32.4666C1.52588e-05 34.4219 0.0592668 34.6589 0.562905 34.6589C0.859162 34.6589 1.2443 34.4812 1.42205 34.2738C1.59981 34.0664 3.1996 30.778 5.00677 26.9859C8.68036 19.1647 10.7542 15.5207 13.3612 12.3211C14.9907 10.2769 17.2126 8.29201 17.8644 8.29201C18.368 8.29201 17.8347 10.9583 16.4719 15.5207C14.2204 23.016 14.0426 25.7712 15.8202 25.7712C16.5904 25.7712 16.946 25.4157 20.9454 20.4682C23.3747 17.476 24.382 16.6465 24.9745 17.1205C25.2115 17.3279 25.6263 18.8684 25.9226 20.646C26.5447 24.438 26.7521 25.0602 27.789 26.1267C29.1221 27.5488 30.0405 27.2821 32.4106 24.8232C33.566 23.6382 34.3955 22.9271 34.2474 23.253C33.8623 24.3195 33.1809 27.0155 33.0031 28.4375C32.8254 29.8299 33.3586 30.8076 34.0696 30.3632C34.2474 30.2447 35.1362 28.6745 36.0249 26.8674C37.8617 23.2234 39.5208 20.7348 40.1429 20.7348C40.3799 20.7348 40.6466 21.0015 40.7354 21.3273C41.2687 23.0456 43.461 23.1641 45.5644 21.6236C46.2755 21.12 46.868 20.883 46.9569 21.0607C47.0754 21.2088 47.2235 22.3346 47.3124 23.5493L47.4901 25.7416L45.6829 27.6969C44.6757 28.7634 43.7869 29.9484 43.6684 30.3336C43.4018 31.4001 43.6388 32.6444 44.172 32.9703C45.5052 33.7998 47.342 31.9926 48.0234 29.1782C48.6159 26.66 48.7344 26.5119 52.9413 23.5493C57.4147 20.3793 57.948 19.9053 57.474 19.4313C57.2666 19.2239 55.8742 20.0238 53.1783 21.8606C50.986 23.3715 49.0899 24.5862 48.9418 24.5862C48.7936 24.5862 48.4381 23.1049 48.1419 21.3273C47.7271 18.6314 47.6975 17.8908 47.9938 17.1797C48.4678 16.0243 49.9194 14.8097 50.7786 14.8097C51.6377 14.8097 51.934 14.5134 51.5192 14.0098C50.7193 13.0914 48.527 14.0098 47.4605 15.7281C47.1346 16.291 46.7791 17.3279 46.6902 18.0389C46.5421 19.4609 46.6013 19.4017 44.7645 20.7052C43.0462 21.9199 42.5426 21.8606 41.6242 20.4386C41.2095 19.7868 40.6466 19.2535 40.3503 19.2535C39.4912 19.2535 37.4766 21.594 35.9953 24.2899C34.6325 26.7785 34.6325 26.7785 34.8103 25.4749C34.8992 24.7639 35.5806 22.7494 36.2916 21.0311C37.0322 19.3128 37.6247 17.6834 37.6247 17.3871C37.6247 16.4391 36.8545 16.8835 36.2027 18.2166C35.8472 18.9573 35.4324 19.5498 35.3139 19.5498C35.1658 19.5498 34.3066 20.5867 33.3883 21.8902C30.8108 25.5046 29.3888 26.4526 28.3815 25.2379C27.7297 24.4973 27.552 23.8752 26.9595 20.1719C26.3669 16.6168 25.9226 15.6984 24.6783 15.6984C23.8191 15.6984 21.5676 17.7426 19.4641 20.4386C17.657 22.779 16.2646 24.2899 15.9387 24.2899C15.2573 24.2899 15.7313 21.9791 18.1902 13.6839C19.7604 8.35126 19.5826 6.45521 17.5681 6.95885C16.3831 7.25511 12.2058 11.6101 10.0728 14.8097C8.35448 17.4167 5.86592 22.1569 2.66633 29.03C1.42205 31.726 1.3628 31.8149 1.2443 30.778C1.06654 28.9412 2.2812 24.1122 4.88827 15.9947C6.28068 11.6693 7.76197 7.16623 8.1471 5.95157C8.53224 4.73692 8.79887 3.64076 8.70999 3.49263C8.44336 3.07787 8.0286 3.226 7.70271 3.84814ZM46.394 30.4521C45.8014 31.6075 45.0904 32.1704 44.7053 31.7852C44.3202 31.4001 44.7645 30.4225 45.8903 29.2374C46.6013 28.4375 46.6606 28.4375 46.7495 29.0004C46.8087 29.3263 46.631 29.9781 46.394 30.4521Z" fill="#414141"/>
<path d="M57.3851 26.5118C57.1778 26.9858 57.6222 27.3709 58.0665 27.1043C58.5109 26.8377 58.422 26.0674 57.948 26.0674C57.711 26.0674 57.474 26.2748 57.3851 26.5118Z" fill="#414141"/>
<path d="M100.017 17.2514C99.75 17.9625 100.135 18.6735 100.698 18.555C101.054 18.4957 101.231 18.1995 101.231 17.7255C101.231 16.8663 100.283 16.5108 100.017 17.2514Z" fill="#414141"/>
<path d="M87.6035 0.483219C80.7599 2.85328 74.0349 11.9188 74.0645 18.7327C74.0645 21.9026 75.1903 23.5321 77.59 23.8579C78.2417 23.9468 80.3155 23.6802 82.419 23.2358C84.4631 22.821 86.5666 22.4655 87.0998 22.4655C88.3441 22.4655 89.5292 23.5913 89.5292 24.7763C89.5292 26.7613 89.0255 27.3834 85.8852 29.3091C80.3155 32.7457 78.2417 35.5009 80.0489 37.1303C81.7968 38.7005 86.0629 35.3527 88.9366 30.1386C89.9439 28.3018 90.0328 28.2426 93.5286 26.3761C95.4839 25.3392 97.2615 24.4208 97.4689 24.332C97.7651 24.2135 97.7947 24.6875 97.6466 26.5539C97.4689 28.5388 97.5281 29.1017 97.9429 29.7238C98.4761 30.5534 99.75 30.7311 100.876 30.109C102.031 29.5165 104.312 27.4427 105.675 25.7836C106.416 24.8948 107.008 24.3616 107.008 24.569C106.979 25.1911 106.445 27.5908 106.149 28.2426C105.912 28.7462 105.231 34.0492 105.231 35.1157C105.231 35.3231 105.409 35.5009 105.646 35.5009C105.912 35.5009 106.268 34.8491 106.564 33.9307C107.868 29.7535 107.779 29.872 109.349 29.872C111.274 29.872 115.096 28.8647 116.755 27.9167C117.496 27.4723 118.74 26.6131 119.51 25.991C120.281 25.3392 120.962 24.8356 121.021 24.8356C121.11 24.8356 121.051 25.3392 120.873 25.9317C120.518 27.2649 120.992 29.1313 121.821 29.5757C123.925 30.7015 126.68 28.0352 126.117 25.4281C125.939 24.6578 125.998 24.5393 126.769 24.3912C127.213 24.3023 128.457 23.9764 129.494 23.6506C130.561 23.3247 131.45 23.1173 131.509 23.1766C131.568 23.2062 131.272 24.1246 130.887 25.1911C129.791 28.0944 129.109 31.768 129.524 32.5087C129.702 32.8642 129.968 33.1308 130.116 33.1308C130.502 33.1308 131.538 31.4125 133.168 28.0944C133.938 26.5243 135.034 24.806 135.627 24.2431C136.575 23.2951 136.693 23.2654 136.96 23.7394C137.493 24.6875 138.501 25.4281 139.271 25.4281C139.656 25.4281 140.574 25.0726 141.285 24.6578C142.026 24.2431 142.648 23.9468 142.707 24.0061C142.826 24.1246 142.026 27.413 141.7 28.2426C141.463 28.7462 140.782 34.0788 140.782 35.1157C140.782 35.3231 140.959 35.5009 141.196 35.5009C141.463 35.5009 141.819 34.8491 142.115 33.9307C143.418 29.7535 143.33 29.872 144.9 29.872C148.129 29.872 152.099 28.3907 154.913 26.1391C155.595 25.5762 156.187 25.1319 156.246 25.1319C156.306 25.1319 156.276 25.7836 156.246 26.6131C156.128 28.0944 156.128 28.0944 157.046 28.0944C157.817 28.0944 158.379 27.65 160.424 25.5762C161.786 24.1838 162.942 23.058 163.031 23.058C163.12 23.058 163.06 23.8579 162.883 24.8652C162.409 27.6797 163.268 28.3907 165.608 27.1464C167.504 26.1095 171 23.058 171 22.4359C171 22.11 170.882 21.873 170.733 21.873C170.585 21.873 169.519 22.6729 168.363 23.6506C166.29 25.3689 164.838 26.3169 164.186 26.3169C163.386 26.3169 164.453 22.2285 166.141 18.8512C167.001 17.1625 167.03 16.8366 166.29 16.8366C165.964 16.8366 165.341 17.4588 164.66 18.4661C163.505 20.2436 162.883 20.688 162.32 20.1251C161.461 19.266 160.394 19.7696 157.313 22.4952C153.432 25.9317 151.743 27.0872 149.521 27.7685C147.536 28.3907 144.337 28.8647 144.337 28.5388C144.337 28.4499 145.374 27.3242 146.648 26.0799C149.314 23.4136 150.588 21.3101 149.995 20.5695C149.758 20.3029 149.403 20.0955 149.195 20.0955C148.455 20.0955 146.322 22.347 145.077 24.3616C144.426 25.4281 143.774 26.3169 143.655 26.3169C142.944 26.3169 145.077 20.0362 146.796 16.9848C148.218 14.4666 150.084 10.3782 150.41 9.10432C150.647 8.09704 150.114 7.7119 149.373 8.3933C148.692 9.01544 146.825 12.8075 145.077 17.1921C144.337 19.0289 143.478 20.9546 143.181 21.4583C142.559 22.4655 140.071 24.2431 139.241 24.2431C138.945 24.2431 138.382 23.7394 137.967 23.058C137.523 22.3767 136.99 21.873 136.664 21.873C135.805 21.873 133.82 24.2727 132.457 26.9686C130.294 31.1755 130.679 28.3611 132.99 22.9692C133.523 21.6953 133.968 20.3621 133.968 20.0362C133.968 19.2067 133.316 19.5326 132.812 20.5991C132.457 21.3694 132.042 21.636 130.146 22.2878C128.902 22.7025 127.065 23.1469 126.028 23.2358C123.984 23.4728 124.043 23.3839 124.813 25.3689C125.169 26.228 125.139 26.465 124.636 27.4427C124.162 28.3314 123.865 28.5388 123.154 28.5388C121.88 28.5388 121.555 27.413 122.236 25.28C122.769 23.5321 124.251 21.5768 124.991 21.5768C125.228 21.5768 125.376 21.399 125.317 21.1916C125.05 20.4806 123.925 20.8657 122.117 22.3174C117.288 26.228 116.222 26.9686 114.77 27.5019C113.052 28.1537 109.171 28.8647 108.904 28.5981C108.786 28.5092 109.764 27.3834 111.037 26.1095C113.763 23.4136 115.067 21.3101 114.444 20.5695C114.207 20.3029 113.852 20.0955 113.645 20.0955C112.904 20.0955 110.771 22.347 109.527 24.3616C108.875 25.4281 108.223 26.3169 108.105 26.3169C107.393 26.3169 109.527 20.0362 111.245 16.9848C112.667 14.4666 114.533 10.3782 114.859 9.10432C115.096 8.09704 114.563 7.7119 113.822 8.3933C113.171 8.98581 111.274 12.8372 109.645 16.8663C108.016 20.9842 107.808 21.3694 105.527 24.0949C101.557 28.7758 99.513 30.1682 98.7131 28.6869C98.328 28.0056 98.6835 25.9614 99.6315 22.9395C99.9574 21.9915 100.194 21.0139 100.194 20.8065C100.194 20.0066 99.276 20.4214 98.8613 21.399C98.5058 22.2582 97.8836 22.7025 94.7137 24.3912C92.6695 25.4577 90.8919 26.2873 90.7734 26.1984C90.6253 26.1095 90.5661 25.6651 90.6549 25.1911C90.8327 23.8283 90.0032 22.1989 88.8181 21.7249C87.3961 21.1324 86.3888 21.162 82.2708 22.0211C77.7381 22.9692 77.2345 22.9692 76.1976 21.9323C74.42 20.1547 74.7163 17.0736 77.1456 12.0965C78.4787 9.34132 78.9528 8.68955 81.5006 6.14174C85.1149 2.5274 87.4257 1.28312 90.4772 1.28312C92.2547 1.28312 92.551 1.37199 93.2916 2.11264C94.447 3.26804 94.4174 5.07521 93.2028 7.65265C92.1066 10.0227 90.7142 11.6225 89.1736 12.4224C87.4554 13.3112 87.8109 14.1999 89.6773 13.5778C91.0993 13.1038 92.6399 11.2374 94.0323 8.36367C95.3654 5.57885 95.5728 3.71243 94.7137 2.05338C93.736 0.127708 90.5957 -0.553684 87.6035 0.483219ZM161.964 21.636C161.964 22.1397 158.113 26.6131 157.639 26.6131C156.809 26.6131 158.172 23.4432 159.683 21.9619C160.749 20.8954 161.964 20.7176 161.964 21.636ZM113.259 22.0804C112.845 22.8803 110.504 25.4577 110.356 25.3096C110.149 25.1022 110.83 23.9764 111.956 22.7322C113.052 21.5175 113.763 21.1916 113.259 22.0804ZM148.81 22.0804C148.396 22.8803 146.055 25.4577 145.907 25.3096C145.7 25.1022 146.381 23.9764 147.507 22.7322C148.603 21.5175 149.314 21.1916 148.81 22.0804ZM87.1591 30.4349C87.1591 30.8496 85.6778 32.9234 84.4631 34.1677C82.893 35.7971 81.3821 36.597 80.7896 36.0934C79.9304 35.3824 81.5006 33.6048 85.1742 31.1755C86.7443 30.1386 87.1591 29.9905 87.1591 30.4349Z" fill="#414141"/>
</svg>
