<svg width="29" height="29" viewBox="0 0 29 29" fill="none" xmlns="http://www.w3.org/2000/svg">
<path d="M24.5009 3.90458C24.3189 3.73205 24.0314 3.73981 23.8589 3.92185C23.6863 4.10395 23.694 4.39129 23.8761 4.56387C26.2837 6.84525 27.6096 9.85847 27.6096 13.0484C27.6096 19.7425 21.7288 25.1886 14.5006 25.1886C13.2869 25.1886 12.0844 25.0349 10.9265 24.7317C10.7749 24.692 10.6136 24.7333 10.4997 24.8408L7.68877 27.4956V23.6843C7.68877 23.5236 7.60386 23.3749 7.46543 23.2933C3.66224 21.0483 1.39163 17.2185 1.39163 13.0484C1.39163 6.35428 7.27229 0.908232 14.5006 0.908232C17.203 0.908232 19.7977 1.66365 22.0041 3.09275C22.2146 3.22903 22.4958 3.16904 22.6321 2.95845C22.7685 2.74792 22.7084 2.46681 22.4979 2.33042C20.1441 0.805826 17.3787 0 14.5006 0C10.7628 0 7.24708 1.35314 4.60106 3.81016C1.94575 6.27578 0.483398 9.55663 0.483398 13.0484C0.483398 15.2894 1.10395 17.5 2.27806 19.441C3.36992 21.2463 4.92312 22.7976 6.78053 23.9409V28.5491C6.78053 28.9383 7.26226 29.1476 7.54648 28.8792L10.942 25.6724C12.099 25.9541 13.2948 26.0969 14.5006 26.0969C18.2384 26.0969 21.7541 24.7437 24.4002 22.2867C27.0554 19.8211 28.5178 16.5402 28.5178 13.0485C28.5178 9.60653 27.0912 6.35921 24.5009 3.90458Z" fill="#414141"/>
<path d="M25.0418 9.39325C24.9206 9.22401 24.6924 9.15842 24.4998 9.23783L16.5253 12.5215L12.8619 9.31593C12.6742 9.15179 12.3892 9.16958 12.2235 9.35604L10.9318 10.8092C10.7674 10.9941 10.7845 11.2859 10.9695 11.4503C11.1544 11.6147 11.4463 11.5976 11.6106 11.4126L12.603 10.2962L16.139 13.3903C16.2688 13.5038 16.4515 13.5341 16.611 13.4685L22.8917 10.8823L16.4079 17.7472L12.8618 14.6442C12.7293 14.5283 12.5419 14.4993 12.3807 14.5699L6.52764 17.1307L9.9958 13.229C10.1624 13.0416 10.1456 12.7545 9.95808 12.5879C9.77054 12.4213 9.48355 12.4382 9.31697 12.6257L4.473 18.0751C4.33746 18.2277 4.32132 18.4591 4.4346 18.6288C4.55525 18.8096 4.79506 18.88 4.99444 18.7929L12.4806 15.5176L16.1388 18.7186C16.3225 18.8793 16.6004 18.8661 16.768 18.6886L25.0028 9.96945C25.1503 9.81335 25.1668 9.56782 25.0418 9.39325Z" fill="#414141"/>
</svg>
