<svg width="56" height="283" viewBox="0 0 56 283" fill="none" xmlns="http://www.w3.org/2000/svg">
<path d="M9.27648 200.896C12.8064 203.808 20.8811 207.603 29.5735 210.427C32.265 211.309 32.8828 211.751 36.6333 215.678C42.2812 221.634 44.5756 226.444 42.3253 227.679C40.9133 228.385 38.7512 228.209 38.4865 227.326C37.6923 224.899 37.1628 223.973 35.6184 222.429C32.3974 219.207 28.9557 218.457 28.338 220.796C27.9409 222.473 29.397 224.944 32.0003 226.885C34.6918 228.915 35.6626 230.459 35.6626 232.621C35.6626 234.21 34.2947 236.813 33.2358 237.21C32.8828 237.387 32.5739 237.74 32.5739 238.048C32.5739 238.71 33.9417 239.151 35.9273 239.151C39.3249 239.151 43.6049 241.358 43.6049 243.123C43.6049 244.667 41.9282 245.549 38.663 245.638C34.1182 245.77 34.1182 246.079 38.6189 248.771C41.7517 250.624 45.8111 253.933 45.8111 254.639C45.8111 254.86 45.2816 255.257 44.6197 255.521C42.2812 256.404 34.6036 253.977 30.9413 251.197C28.5586 249.388 27.4996 249.785 29.2205 251.815C32.3092 255.477 43.6931 258.61 46.6053 256.536C48.635 255.124 47.6643 252.962 43.6049 250.138C42.1488 249.123 40.9574 248.109 40.9574 247.932C40.9574 247.712 41.6193 247.27 42.4576 246.917C44.1344 246.211 45.3698 244.711 45.3698 243.343C45.3698 241.975 43.7814 239.725 42.3253 238.931C41.5752 238.578 39.9867 238.048 38.7071 237.784C36.4568 237.298 36.4568 237.298 36.8098 235.886C37.0304 235.136 37.1628 233.415 37.1628 232.092V229.665H39.9867C42.5018 229.665 42.8989 229.532 43.8696 228.429C44.4432 227.768 44.9286 226.664 44.9286 226.003C44.9286 223.532 41.8399 218.457 37.6923 214.045L35.8832 212.148L37.2069 212.412C37.9129 212.545 40.5603 212.898 42.9871 213.207C48.1496 213.824 50.8412 213.339 51.3266 211.751C51.8119 210.294 50.4882 208.883 44.355 204.294L38.7512 200.102L41.3546 199.881C44.3991 199.616 45.3698 198.955 45.3698 197.057C45.3698 195.16 44.0902 193.263 40.4721 189.689C38.7954 188.012 37.4275 186.644 37.5158 186.644C37.604 186.644 38.9277 187.041 40.5162 187.527C42.1047 188.012 44.2226 188.409 45.2375 188.409C46.8259 188.409 47.1348 188.277 47.1348 187.527C47.1348 186.909 46.3847 186.291 44.355 185.276C42.8548 184.482 40.5603 183.202 39.2807 182.364C36.8098 180.82 32.5739 177.069 32.5739 176.496C32.5739 176.275 33.3681 176.01 34.3389 175.878C35.3096 175.745 36.898 175.481 37.9129 175.348C41.6634 174.775 42.3253 172.26 39.5896 168.906L38.2659 167.23H40.075C41.7517 167.23 41.8399 167.141 41.8399 165.906C41.8399 164.847 41.1339 163.92 38.0894 160.92C36.0156 158.89 34.3389 157.169 34.3389 157.037C34.3389 156.905 35.5302 156.993 37.0304 157.258C41.2222 157.964 42.2812 156.684 40.4279 153.198C38.8836 150.374 34.3389 145.168 33.4122 145.168C32.9269 145.168 32.5739 145.344 32.5739 145.565C32.5739 145.785 33.7652 147.374 35.2213 149.095C37.7805 152.183 39.1925 154.345 39.1925 155.316C39.1925 156.507 33.1034 154.919 28.0733 152.404C25.5582 151.124 25.0728 151.08 25.0728 152.183C25.0728 152.669 25.9994 153.595 27.4996 154.61C30.1471 156.331 30.8089 157.258 29.9706 158.096C29.7058 158.361 29.4852 159.155 29.4852 159.861C29.4852 160.876 30.4559 162.155 34.5595 166.347C37.3393 169.259 39.6337 171.907 39.6337 172.26C39.6337 173.23 38.4865 173.672 35.2213 174.025C32.1768 174.378 30.3677 175.216 30.3677 176.275C30.3677 177.731 34.6036 181.482 40.4721 185.188C40.5603 185.276 40.5603 185.409 40.4279 185.585C40.2956 185.717 37.0304 184.614 33.1916 183.158C28.4262 181.349 26.0436 180.643 25.7347 180.952C25.1611 181.57 26.3524 182.452 29.3528 183.555C33.8094 185.232 43.6049 194.366 43.6049 196.881C43.6049 198.822 40.6044 198.778 34.1624 196.748C31.0296 195.734 30.3677 195.689 30.3677 196.616C30.3677 197.013 31.2502 197.675 32.4415 198.205C34.7801 199.219 48.7674 209.456 49.1204 210.383C49.2527 210.736 49.2527 211.177 49.0762 211.398C48.4585 212.457 37.5599 211.265 32.8828 209.633C31.5149 209.147 28.4263 207.515 26.0436 206.059C19.9986 202.22 11.5268 198.116 9.40885 197.984C6.93791 197.852 6.89379 198.955 9.27648 200.896ZM11.7033 199.925C12.674 199.969 22.9549 205.573 22.1165 205.573C20.9693 205.617 11.3944 200.896 11.3944 200.322C11.3944 200.058 11.5268 199.881 11.7033 199.925ZM32.0444 221.678C33.8535 222.605 37.4275 227.238 36.3244 227.238C35.6626 227.238 32.5739 225.297 31.6032 224.238C29.4852 221.987 29.75 220.487 32.0444 221.678ZM32.1327 158.537C32.971 158.361 39.9867 164.803 39.5013 165.288C38.7512 166.082 33.6329 163.391 32.0444 161.361C31.1178 160.214 31.1619 158.67 32.1327 158.537Z" fill="#414141"/>
<path d="M9.67346 260.772C11.1737 269.553 11.306 270.215 11.9238 272.2C12.6298 274.583 13.6005 275.113 13.6005 273.171C13.6005 272.421 13.6887 271.803 13.7329 271.803C13.8211 271.803 16.3803 272.95 19.3807 274.407C22.3811 275.818 26.9259 277.76 29.441 278.687C33.0591 280.054 34.2064 280.672 34.7358 281.599C35.5301 283.011 36.0154 283.143 36.7655 282.084C37.295 281.378 37.648 281.422 42.3251 282.305C48.9879 283.584 51.0617 283.187 52.253 280.363C53.4885 277.451 52.6943 273.392 49.0761 264.037C47.4435 259.846 46.7817 258.566 46.1639 258.566C45.0167 258.566 45.1491 259.051 47.3994 264.743C49.7821 270.877 51.1058 275.377 51.1058 277.672C51.1058 279.878 49.5615 281.51 47.4876 281.51C45.2373 281.466 36.9862 279.481 36.3243 278.819C36.0154 278.466 35.2653 275.995 34.6035 273.348C32.662 265.493 32.5738 265.185 31.9119 265.185C30.9853 265.185 31.0736 266.332 32.6179 272.333C33.368 275.465 33.7651 277.848 33.5445 278.069C32.7944 278.819 15.0566 271.23 13.2475 269.421C12.5415 268.715 10.9972 260.331 10.6001 254.816C10.3353 251.727 10.1588 250.844 9.62934 250.844C8.65861 250.844 8.65861 254.727 9.67346 260.772Z" fill="#414141"/>
<path d="M25.6903 196.175C26.7493 196.572 27.8082 195.998 27.6318 195.16C27.5435 194.631 27.1023 194.366 26.3963 194.366C25.1167 194.366 24.5872 195.778 25.6903 196.175Z" fill="#414141"/>
<path d="M0.540176 101.264C3.80534 111.501 17.572 121.782 28.0735 121.782C31.6917 121.782 33.7655 120.811 34.8686 118.649C35.9275 116.664 35.8834 115.252 34.5597 109.118C33.236 102.765 33.1919 101.485 34.3832 99.9848C35.0892 99.1023 35.6628 98.8376 37.0306 98.8376C39.8987 98.8376 41.0018 99.72 43.6051 104.177C46.2967 108.721 50.3119 113.178 52.1651 113.663C53.5771 114.016 55.4303 113.31 55.8274 112.251C55.9598 111.898 55.8274 110.751 55.5186 109.736C54.7685 107.221 49.6501 102.235 45.5466 100.029C42.8109 98.5287 42.2373 97.9992 40.8694 95.6165C38.4867 91.4247 35.9717 86.4829 36.1482 86.3064C36.2364 86.2181 37.4719 86.3505 38.8838 86.5711C47.3115 88.0272 47.5763 83.0412 39.5016 75.6725C37.7808 74.084 36.5453 72.8045 36.7659 72.8045C37.5601 72.8486 41.1783 73.6869 42.0608 74.084C42.8109 74.437 50.7091 75.4519 52.2975 75.4519C52.6064 75.4519 52.8711 75.1871 52.8711 74.8341C52.8711 74.437 51.9004 73.9075 50.5326 73.4663C44.3111 71.5249 44.4876 71.6572 44.4876 69.3187C44.4876 66.4506 42.9874 60.7586 41.5754 58.2877C40.9135 57.1846 39.634 55.3314 38.7074 54.1842C36.7218 51.8456 36.6335 51.4485 37.9572 51.8456C39.8546 52.4633 42.3696 52.1545 43.4286 51.1396C46.4732 48.2716 42.1931 43.1532 37.6484 44.3004C36.7218 44.521 36.5453 44.3887 36.3247 43.3738C36.1923 42.6678 35.7069 40.8587 35.2216 39.3144C34.7362 37.7259 34.4273 36.4022 34.5156 36.314C34.6038 36.2257 36.5012 36.7552 38.7956 37.5053C43.6934 39.1379 48.3705 39.7115 48.9 38.7849C49.5177 37.8142 48.6794 37.1965 42.7668 34.196C39.6781 32.6517 36.6335 30.7544 35.9275 30.0484L34.648 28.7247L36.3247 27.1803C38.0014 25.5919 38.1779 24.6211 37.2513 22.4591C36.9865 21.8413 37.2954 21.7972 39.4133 21.9737L41.8401 22.1502V20.7824C41.8401 19.6351 41.2224 18.7968 38.0896 15.7522C36.0158 13.7225 34.3391 12.0017 34.3391 11.8693C34.3391 11.737 35.5304 11.8252 37.0306 12.09C41.2224 12.7959 42.2814 11.5163 40.4282 8.03056C38.8838 5.20663 34.3391 7.62939e-06 33.4125 7.62939e-06C32.9271 7.62939e-06 32.5741 0.176506 32.5741 0.397125C32.5741 0.617744 33.7655 2.20621 35.2216 3.92704C37.7808 7.01571 39.1927 9.17778 39.1927 10.1485C39.1927 11.3399 33.1036 9.7514 28.0735 7.23633C25.5584 5.95673 25.0731 5.91261 25.0731 7.01571C25.0731 7.50108 25.9997 8.42767 27.4999 9.44253C30.1473 11.1634 30.8092 12.09 29.9708 12.9283C28.7795 14.1197 29.4413 15.8405 32.2211 18.885C36.7218 23.7828 36.9865 24.8418 34.1185 26.5185C33.1477 27.0921 32.5741 27.7981 32.5741 28.3717C32.5741 29.7395 35.9717 32.6958 40.0311 34.8138C42.0166 35.8286 43.561 36.7993 43.4727 36.9317C43.0756 37.2847 38.4426 35.7845 34.0743 33.9313C31.8681 33.0047 29.7943 32.2105 29.5296 32.2105C28.4706 32.2105 29.1325 33.5783 30.5444 34.2843C31.8681 34.902 32.2211 35.4315 33.1919 38.3437C33.8096 40.1969 34.4715 42.9326 34.6038 44.4328C34.9127 47.345 35.3098 47.698 36.81 46.5507C38.0014 45.6241 40.2076 45.7565 41.5754 46.8155C42.9874 47.9186 43.0756 49.6394 41.796 50.3013C39.8104 51.4044 34.3391 49.2864 32.7947 46.8596C32.3094 46.1095 31.6475 45.4918 31.3387 45.4476C30.1473 45.4476 30.9415 47.5656 33.1477 50.213C38.4867 56.6992 40.1193 59.0378 40.9577 61.244C41.9284 63.8032 42.9874 69.5834 42.5903 69.9805C42.4579 70.157 40.7812 68.7009 38.8838 66.8036C34.8686 62.7442 31.7358 60.8027 30.6327 61.7294C30.2356 62.0823 29.9267 62.6118 29.9267 62.9207C29.9267 64.0238 33.2801 67.2007 36.2805 69.0539C37.869 70.0246 39.1927 70.9954 39.1927 71.1719C39.1927 72.2308 29.8384 69.0539 25.2937 66.4947C21.5432 64.3768 15.4541 61.597 13.5567 61.1116C12.0565 60.7586 11.4829 61.5529 12.4977 62.656C13.4244 63.6708 18.4104 66.0976 25.6467 69.0539C32.2653 71.7896 33.6772 72.6721 38.7956 77.5257C42.6344 81.188 43.9581 83.1736 43.4286 84.5414C43.0315 85.5563 38.7515 85.1591 34.1185 83.6589C32.177 83.0412 30.5444 82.5117 30.5003 82.5117C30.4121 82.5117 30.3679 82.8647 30.3679 83.2618C30.3679 83.7031 31.0739 84.4532 31.9564 84.9385C33.2801 85.6445 34.0743 86.7917 36.3688 91.1159C37.9131 94.028 39.1927 96.5431 39.1927 96.7196C39.1927 96.9402 38.3985 97.0726 37.4719 97.0726C34.9568 97.0726 33.589 97.7345 32.5741 99.367C31.4269 101.264 31.471 103.206 32.7947 109.648C34.2067 116.399 34.2067 117.149 32.6624 118.693C30.2356 121.076 25.3819 120.767 19.0281 117.855C6.4969 111.986 -2.19551 98.0433 3.49648 92.9249C4.77607 91.7777 5.12906 91.6895 7.07051 91.9101C11.527 92.4396 17.3514 96.2784 18.7633 99.5877C19.7341 102.014 21.0578 101.22 20.2636 98.7052C19.2928 95.793 14.2186 92.1307 9.05609 90.6746C4.95256 89.4833 2.21688 90.4981 0.760796 93.6751C-0.165806 95.793 -0.254055 98.7052 0.540176 101.264ZM32.2211 13.4578C32.9712 13.4578 39.634 19.1939 39.634 19.8999C39.634 21.1354 34.9127 19.1057 32.7065 16.8553C31.118 15.2669 30.8533 13.4578 32.2211 13.4578ZM32.883 63.4943C34.0743 64.112 37.9131 67.5978 37.6925 67.8185C37.3836 68.1273 35.7069 67.1125 33.8537 65.4358C32.0446 63.8032 31.5593 62.7442 32.883 63.4943ZM45.1494 102.367C45.8995 102.367 48.4146 104.044 50.3119 105.809C53.9301 109.163 55.1656 112.075 52.9594 112.075C51.9886 112.075 48.6352 108.677 46.5173 105.456C44.9729 103.118 44.6641 102.367 45.1494 102.367Z" fill="#414141"/>
<path d="M25.5148 83.1736C26.2649 83.6148 27.7651 82.9088 27.6327 82.2028C27.4121 81.0556 26.0001 80.3938 25.5148 81.188C24.9412 82.0705 24.9412 82.8206 25.5148 83.1736Z" fill="#414141"/>
</svg>
